# xmcd CD database file
#
# Track frame offsets:
#	150
#	13030
#	24153
#	39358
#	51530
#	62310
#	81098
#	95713
#	105045
#	120015
#	134275
#	150890
#	162573
#	176745
#	188770
#	203150
#	213710
#	227935
#	241880
#	253075
#
# Disc length: 3607 seconds
#
# Revision: 0
# Processed by: cddbd v1.5.2PL0 Copyright (c) Steve Scherf et al.
# Submitted via: CDex 1.51
#
DISCID=fc0e1514
DTITLE=Various Artist - The Best Mexican Country Songs CD 1
DYEAR=1900
DGENRE=Country
TTITLE0=Ay Ansema - Cesar Suedan
TTITLE1=Veinte Anos - Felipe Valides Leal
TTITLE2=Mi Ranchito - Felipe Valides Leal
TTITLE3=Mira y comprendre - Cornelio Reyna
TTITLE4=Con juestro amor - Cornelio Reyna
TTITLE5=El chubasco - Pascal Barraza
TTITLE6=Morena la causa fuiste tu - Carlos y José
TTITLE7=Que tal si te compro - Cornelio Reyna
TTITLE8=El tio Juan - Leonardo Yanez
TTITLE9=Corrido del Betillo - Los Gorriones
TTITLE10=La Muerte del Palomo - Paulino Vargas
TTITLE11=He de Quererte - Angel Gonzalez
TTITLE12=Las Noches las hago Dias - Monzoya
TTITLE13=El Querreque - Monzoya
TTITLE14=Lampara sin luz - José Torres jr.
TTITLE15=Central Camionera - Paulino Vargas
TTITLE16=El ausenta - Consuelo Castro
TTITLE17=El contrabando del paso - Trad.
TTITLE18=El golpe traidor - Roberto Lopez
TTITLE19=Contrabando y Traicion - Paulino Vargas
EXTD=
EXTT0=
EXTT1=
EXTT2=
EXTT3=
EXTT4=
EXTT5=
EXTT6=
EXTT7=
EXTT8=
EXTT9=
EXTT10=
EXTT11=
EXTT12=
EXTT13=
EXTT14=
EXTT15=
EXTT16=
EXTT17=
EXTT18=
EXTT19=
PLAYORDER=
